<?xml version="1.0" encoding="UTF-8" standalone="no"?>
<svg
   xmlns:dc="http://purl.org/dc/elements/1.1/"
   xmlns:cc="http://creativecommons.org/ns#"
   xmlns:rdf="http://www.w3.org/1999/02/22-rdf-syntax-ns#"
   xmlns:svg="http://www.w3.org/2000/svg"
   xmlns="http://www.w3.org/2000/svg"
   xmlns:xlink="http://www.w3.org/1999/xlink"
   xmlns:sodipodi="http://sodipodi.sourceforge.net/DTD/sodipodi-0.dtd"
   xmlns:inkscape="http://www.inkscape.org/namespaces/inkscape"
   width="52.365414mm"
   height="132.29167mm"
   viewBox="0 0 52.365414 132.29167"
   version="1.1"
   id="svg8"
   inkscape:version="1.0.2 (e86c870879, 2021-01-15)"
   sodipodi:docname="logo.svg">
  <defs
     id="defs2">
    <linearGradient
       inkscape:collect="always"
       id="linearGradient1172">
      <stop
         style="stop-color:#8fff8f;stop-opacity:1;"
         offset="0"
         id="stop1168" />
      <stop
         style="stop-color:#8fff8f;stop-opacity:0;"
         offset="1"
         id="stop1170" />
    </linearGradient>
    <linearGradient
       inkscape:collect="always"
       id="linearGradient1052">
      <stop
         style="stop-color:#8fff8f;stop-opacity:1;"
         offset="0"
         id="stop1048" />
      <stop
         style="stop-color:#422713;stop-opacity:1"
         offset="1"
         id="stop1050" />
    </linearGradient>
    <linearGradient
       inkscape:collect="always"
       xlink:href="#linearGradient1052"
       id="linearGradient1046"
       x1="-69.918907"
       y1="-411.57208"
       x2="-39.985912"
       y2="-352.19339"
       gradientUnits="userSpaceOnUse"
       gradientTransform="translate(173.69815,509.00668)" />
    <linearGradient
       inkscape:collect="always"
       xlink:href="#linearGradient1052"
       id="linearGradient1060"
       x1="-20.561077"
       y1="-400.26718"
       x2="-62.149639"
       y2="-375.40271"
       gradientUnits="userSpaceOnUse"
       gradientTransform="translate(173.69815,509.00668)" />
    <linearGradient
       inkscape:collect="always"
       xlink:href="#linearGradient1052"
       id="linearGradient1068"
       x1="-43.668224"
       y1="-381.8623"
       x2="-79.911423"
       y2="-404.47299"
       gradientUnits="userSpaceOnUse"
       gradientTransform="translate(173.69815,509.00668)" />
    <linearGradient
       inkscape:collect="always"
       xlink:href="#linearGradient1052"
       id="linearGradient1146"
       x1="-48.07468"
       y1="-402.83517"
       x2="-32.042408"
       y2="-331.89001"
       gradientUnits="userSpaceOnUse"
       gradientTransform="translate(173.69815,509.00668)" />
    <linearGradient
       inkscape:collect="always"
       xlink:href="#linearGradient1172"
       id="linearGradient1174"
       x1="-86.718559"
       y1="-324.71799"
       x2="-94.229347"
       y2="-297.32184"
       gradientUnits="userSpaceOnUse"
       gradientTransform="translate(173.69815,509.00668)" />
  </defs>
  <sodipodi:namedview
     id="base"
     pagecolor="#ffffff"
     bordercolor="#666666"
     borderopacity="1.0"
     inkscape:pageopacity="0.0"
     inkscape:pageshadow="2"
     inkscape:zoom="0.49497475"
     inkscape:cx="870.37349"
     inkscape:cy="473.57059"
     inkscape:document-units="mm"
     inkscape:current-layer="layer1"
     inkscape:document-rotation="0"
     showgrid="false"
     inkscape:window-width="1920"
     inkscape:window-height="1017"
     inkscape:window-x="0"
     inkscape:window-y="27"
     inkscape:window-maximized="1" />
  <metadata
     id="metadata5">
    <rdf:RDF>
      <cc:Work
         rdf:about="">
        <dc:format>image/svg+xml</dc:format>
        <dc:type
           rdf:resource="http://purl.org/dc/dcmitype/StillImage" />
        <dc:title></dc:title>
      </cc:Work>
    </rdf:RDF>
  </metadata>
  <g
     inkscape:label="Layer 1"
     inkscape:groupmode="layer"
     id="layer1"
     transform="translate(-73.139124,-105.83333)">
    <g
       id="g1197"
       transform="matrix(0.78212085,-0.52581518,0.52581518,0.78212085,-60.888354,109.97971)">
      <path
         id="path871-5-0-1"
         style="fill:none;fill-opacity:1;stroke:#8fff8f;stroke-width:0.264583px;stroke-linecap:butt;stroke-linejoin:miter;stroke-opacity:1"
         d="m 79.843123,206.79013 c 1.135532,-19.11553 2.074716,-38.45454 6.893139,-57.06586 2.426173,-6.41254 6.081338,-12.41337 6.961573,-19.33712 2.106989,-10.1031 2.529041,-21.82671 10.583545,-29.33489 2.88081,-3.600023 11.05074,-4.537988 5.59168,1.30687 -4.97926,6.62731 -7.10925,15.40233 -4.65044,23.44524 2.608,5.87628 -1.05242,11.09293 -3.86471,15.98137 -6.00244,11.59119 -8.272785,24.61538 -10.93508,37.26646 -2.93743,14.50013 -2.124711,29.321 -2.203317,44.01236" />
      <path
         id="path871-5-0"
         style="fill:url(#linearGradient1174);fill-opacity:1;stroke:none;stroke-width:0.264583px;stroke-linecap:butt;stroke-linejoin:miter;stroke-opacity:1"
         d="m 79.468802,211.68485 c 1.448882,-19.75168 1.922946,-39.74992 6.40824,-59.11477 1.720692,-7.02839 6.314102,-12.97383 7.389559,-20.18935 2.429553,-10.44462 2.454242,-22.50316 10.357199,-30.6786 1.66766,-2.021421 9.77791,-6.931313 7.81257,-1.10228 -6.56414,6.7982 -8.6773,17.06742 -6.07083,26.07191 2.95722,7.21295 -3.24511,12.44669 -5.703635,18.55913 -5.202901,12.36653 -7.757367,25.668 -10.079702,38.82357 -1.571425,9.85911 -1.459059,19.84264 -1.406163,29.79205" />
      <path
         id="path897-3"
         style="fill:url(#linearGradient1060);fill-opacity:1;stroke:none;stroke-width:0.264583px;stroke-linecap:butt;stroke-linejoin:miter;stroke-opacity:1"
         d="m 133.82672,101.82784 c 8.96831,0.52831 18.07374,-0.31724 26.94592,1.02588 6.49685,3.36352 -0.38167,9.02924 -5.09852,9.0353 -9.24937,2.11081 -18.68912,-0.38941 -27.99822,0.11277 -7.41648,-1.06338 -0.007,-7.56534 3.63602,-8.62856 0.854,-0.48865 1.70425,-0.98652 2.5148,-1.54539 z" />
      <path
         id="path899-8"
         style="fill:url(#linearGradient1068);fill-opacity:1;stroke:none;stroke-width:0.264583px;stroke-linecap:butt;stroke-linejoin:miter;stroke-opacity:1"
         d="m 119.00944,119.32436 c 8.54254,-0.40915 17.39209,0.98482 25.64703,-1.85326 5.39592,-4.67942 -5.05002,-5.12074 -7.99881,-6.5155 -6.56447,-2.04927 -12.95821,0.97616 -18.77874,3.70175 -2.73861,1.43306 -0.67967,3.62375 1.13052,4.66701 z" />
      <path
         id="path871-5-0-6"
         style="fill:url(#linearGradient1046);fill-opacity:1;stroke:none;stroke-width:0.264583px;stroke-linecap:butt;stroke-linejoin:miter;stroke-opacity:1"
         d="m 92.402336,136.55252 c 3.094572,-11.36813 2.458634,-24.45012 10.338124,-33.98121 1.55227,-2.10516 9.68749,-7.630555 8.67271,-2.5372 -3.65696,5.14784 -6.84886,10.93251 -7.05634,17.36341 -1.19757,4.2233 -3.41667,8.05475 -4.884616,12.17722" />
      <path
         id="path893-9"
         style="fill:url(#linearGradient1146);fill-opacity:1;stroke:none;stroke-width:0.264583px;stroke-linecap:butt;stroke-linejoin:miter;stroke-opacity:1"
         d="m 97.807537,123.27927 c 4.952263,-8.50269 10.256163,-18.10242 20.071073,-21.6467 7.39857,-3.574317 16.71291,-4.585385 24.03235,-0.27191 -0.78146,6.76039 -8.30358,9.11365 -13.35858,12.13536 -8.20375,4.21318 -17.10873,6.9905 -24.98876,11.84438 -4.04085,4.40013 -5.580186,11.55487 -11.83213,13.53202 0.919649,-5.26967 3.33854,-10.85074 6.076047,-15.59315 z" />
      <path
         id="path895-6"
         style="fill:#8fff8f;fill-opacity:1;stroke:none;stroke-width:0.264583px;stroke-linecap:butt;stroke-linejoin:miter;stroke-opacity:1"
         d="m 91.368843,139.33531 c 3.519428,-9.37792 10.090857,-18.10736 19.830417,-21.58256 3.16686,-1.80389 13.23866,-4.29457 9.70752,2.491 -3.12523,6.37924 -10.84125,7.83319 -15.1121,13.18042 -2.55214,5.20792 -9.060482,3.48254 -13.696146,5.6965 z" />
    </g>
  </g>
</svg>
